<?xml version="1.0" encoding="UTF-8" standalone="no"?>
<svg
   width="165px"
   height="40px"
   viewBox="0 0 165 40"
   version="1.1"
   id="svg11"
   sodipodi:docname="rss_podcasts.svg"
   inkscape:version="1.1.1 (3bf5ae0d25, 2021-09-20)"
   xmlns:inkscape="http://www.inkscape.org/namespaces/inkscape"
   xmlns:sodipodi="http://sodipodi.sourceforge.net/DTD/sodipodi-0.dtd"
   xmlns="http://www.w3.org/2000/svg"
   xmlns:svg="http://www.w3.org/2000/svg"
   xmlns:rdf="http://www.w3.org/1999/02/22-rdf-syntax-ns#"
   xmlns:cc="http://creativecommons.org/ns#"
   xmlns:dc="http://purl.org/dc/elements/1.1/">
  <defs
     id="defs15" />
  <sodipodi:namedview
     id="namedview13"
     pagecolor="#ffffff"
     bordercolor="#666666"
     borderopacity="1.0"
     inkscape:pageshadow="2"
     inkscape:pageopacity="0.0"
     inkscape:pagecheckerboard="0"
     showgrid="false"
     inkscape:zoom="5.0995578"
     inkscape:cx="34.022558"
     inkscape:cy="21.570498"
     inkscape:window-width="1920"
     inkscape:window-height="1080"
     inkscape:window-x="0"
     inkscape:window-y="0"
     inkscape:window-maximized="1"
     inkscape:current-layer="Group-2" />
  <!-- Generator: Sketch 52.6 (67491) - http://www.bohemiancoding.com/sketch -->
  <title
     id="title2">spotify-podcast-badge-blk-grn-165x40</title>
  <desc
     id="desc4">Created with Sketch.</desc>
  <g
     id="spotify-podcast-badge-blk-grn-165x40"
     stroke="none"
     stroke-width="1"
     fill="none"
     fill-rule="evenodd">
    <g
       id="Group-2">
      <path
         d="M155.462317,0.5 L9.54298794,0.5 C9.23718907,0.500000061 9.10222971,0.500057382 8.9333245,0.500344823 C8.75914935,0.500641232 8.60147796,0.501164881 8.4503371,0.501990385 C8.31093757,0.503042293 8.31093757,0.503042293 8.17123664,0.504701114 C8.05145483,0.50622126 7.95430604,0.507728185 7.73523354,0.511324656 C7.63560663,0.512955798 7.63560663,0.512955798 7.53999468,0.514444796 C6.77532204,0.533501958 6.17590622,0.582235722 5.60805245,0.683921078 C4.97373089,0.794883016 4.40022513,0.982751407 3.84712442,1.26350199 C3.29467346,1.54621893 2.78971907,1.91364998 2.350874,2.35265774 C1.9136357,2.78495239 1.54752652,3.28900419 1.26513746,3.84593553 C0.985573621,4.39236294 0.798895233,4.96583863 0.686361558,5.611175 C0.583694388,6.17433335 0.534557489,6.76869157 0.514887789,7.53850954 C0.510904757,7.67113311 0.508296788,7.80771984 0.505899647,7.99045837 C0.50486648,8.07179097 0.50486648,8.07179097 0.503895865,8.15352806 C0.502129327,8.30229721 0.502129327,8.30229721 0.5,8.4443 C0.5,8.98825 0.5,8.98825 0.5,9.5361 L0.5,30.4648 C0.5,30.904206 0.5,30.904206 0.5,31.3385814 C0.5,31.4485499 0.5,31.4485499 0.499937643,31.5507036 C0.502129454,31.7019465 0.502129454,31.7019465 0.503895689,31.8505134 C0.504852178,31.9308028 0.504852178,31.9308028 0.505868535,32.0105901 C0.508268666,32.1932042 0.510882868,32.330397 0.514950025,32.46773 C0.53455833,33.2352268 0.583696518,33.8295783 0.687037849,34.3965174 C0.799275611,35.040243 0.986350407,35.6158457 1.26553381,36.1597408 C1.54826938,36.7147517 1.914868,37.2179189 2.35426946,37.6489326 C2.78903353,38.087359 3.2925666,38.4535299 3.84733733,38.734707 C4.39339648,39.0144827 4.96441014,39.2017457 5.61010376,39.3183422 C6.16895541,39.4185036 6.75381439,39.4656174 7.53852502,39.4874207 C7.85797197,39.4944423 8.15615495,39.498 8.44996762,39.4980075 C8.60147796,39.4988351 8.75914935,39.4993588 8.9333245,39.4996552 C9.10222971,39.4999426 9.23718907,39.4999999 9.54298794,39.5 L155.462417,39.5 C155.732811,39.5 155.853496,39.4999583 156.004198,39.4997505 C156.203248,39.499476 156.378467,39.4989313 156.547359,39.498 C156.839864,39.498 157.147833,39.4943606 157.45627,39.4874902 C158.246626,39.4656826 158.829251,39.4186451 159.383,39.3184485 C160.029195,39.2018314 160.602236,39.01452 161.155288,38.7338785 C161.707735,38.4533688 162.211183,38.0870066 162.649415,37.6447625 C163.081256,37.2194537 163.449134,36.7156181 163.736761,36.1609378 C164.015456,35.6102074 164.202464,35.0320689 164.310967,34.3909277 C164.412834,33.8435049 164.459672,33.2868196 164.488329,32.4742169 C164.490132,32.3308112 164.491187,32.1827793 164.491715,32.0155813 C164.492114,31.8894402 164.492193,31.7888194 164.492309,31.5478582 C164.494473,31.439896 164.494473,31.439896 164.49608,31.3317328 C164.499348,31.0931827 164.5,30.9019181 164.5,30.4648 L164.5,9.5361 C164.5,8.99184779 164.498715,8.7523562 164.492193,8.4443 C164.492193,8.2144775 164.492112,8.1126965 164.491708,7.98543854 C164.491176,7.81794208 164.49012,7.67034488 164.488598,7.54094437 C164.459672,6.71708606 164.412834,6.16037793 164.30953,5.60477958 C164.202818,4.97382724 164.016273,4.39803029 163.738554,3.8473707 C163.450094,3.28832338 163.082566,2.78338505 162.646527,2.35037068 C162.210469,1.91386133 161.705543,1.54618981 161.157075,1.26502432 C160.595147,0.98252524 160.019849,0.794680145 159.382845,0.683323671 C158.822393,0.581999014 158.225384,0.533353753 157.462028,0.514435472 C157.37409,0.513008314 157.37409,0.513008314 157.285869,0.511551041 C157.143548,0.509206314 157.143548,0.509206314 157.001224,0.507006454 C156.826438,0.504389215 156.681281,0.502689027 156.544858,0.501793744 C156.379942,0.500968735 156.206042,0.50047943 156.008899,0.500230522 C155.73508,0.500000033 155.73508,0.500000033 155.462317,0.5 Z"
         id="Path"
         stroke="#222326"
         fill="#000000" />
      <text
         xml:space="preserve"
         style="font-style:normal;font-weight:normal;font-size:12px;line-height:1.25;font-family:sans-serif;fill:#000000;fill-opacity:1;stroke:none"
         x="13.453184"
         y="17.372837"
         id="text5810"><tspan
           sodipodi:role="line"
           id="tspan5808"
           x="13.453184"
           y="17.372837"
           style="font-style:normal;font-variant:normal;font-weight:bold;font-stretch:normal;font-size:12px;font-family:sans-serif;-inkscape-font-specification:'sans-serif Bold';fill:#ffffff">THENET.LOL</tspan><tspan
           sodipodi:role="line"
           x="13.453184"
           y="32.605648"
           style="font-style:normal;font-variant:normal;font-weight:bold;font-stretch:normal;font-size:12px;font-family:sans-serif;-inkscape-font-specification:'sans-serif Bold';fill:#ffffff"
           id="tspan2598">RSS FEED</tspan></text>
      <rect
         style="fill:#ffffff;stroke-width:4.31114;stroke-miterlimit:1.41421"
         id="rect58270"
         width="25.165953"
         height="22.076221"
         x="120.27851"
         y="9.0755424" />
      <path
         d="m 143.75201,5.1652352 h -22.1042 c -1.66472,0 -3.01421,1.3494855 -3.01421,3.0142058 v 22.104202 c 0,1.66472 1.34949,3.014206 3.01421,3.014206 h 22.1042 c 1.66472,0 3.0142,-1.349486 3.0142,-3.014206 V 8.179441 c 0,-1.6647203 -1.34948,-3.0142058 -3.0142,-3.0142058 z M 125.66675,29.278901 c -1.66472,0 -3.0142,-1.349486 -3.0142,-3.014206 0,-1.66472 1.34948,-3.014206 3.0142,-3.014206 1.66472,0 3.01421,1.349486 3.01421,3.014206 0,1.66472 -1.34949,3.014206 -3.01421,3.014206 z m 9.89245,0 h -2.1561 c -0.37747,0 -0.69396,-0.291122 -0.71852,-0.66777 -0.32741,-5.026823 -4.34818,-9.0376 -9.36432,-9.364332 -0.37659,-0.02449 -0.66771,-0.341045 -0.66771,-0.718444 v -2.156103 c 0,-0.410375 0.34336,-0.739549 0.75317,-0.717446 6.94185,0.375144 12.49622,5.936486 12.87092,12.870919 0.0221,0.40981 -0.30707,0.753176 -0.71744,0.753176 z m 6.46968,0 h -2.15603 c -0.38689,0 -0.70175,-0.306565 -0.71758,-0.69314 -0.35153,-8.57385 -7.23435,-15.457929 -15.80952,-15.809526 -0.38664,-0.0159 -0.6932,-0.330745 -0.6932,-0.717632 V 9.9025666 c 0,-0.4052848 0.3352,-0.7324561 0.74017,-0.7178847 10.53906,0.3783443 18.97759,8.8662301 19.35405,19.3540451 0.0146,0.404972 -0.3126,0.740174 -0.71789,0.740174 z"
         style="fill:#ff6600;stroke-width:0.062796"
         id="path42307" />
    </g>
  </g>
  <metadata
     id="metadata1022">
    <rdf:RDF>
      <cc:Work
         rdf:about="">
        <dc:title>spotify-podcast-badge-blk-grn-165x40</dc:title>
      </cc:Work>
    </rdf:RDF>
  </metadata>
</svg>
